<?xml version="1.0" encoding="UTF-8"?>
<svg version="1.1" viewBox="0 0 1964 1604" width="491" height="401" xmlns="http://www.w3.org/2000/svg">
<path transform="translate(1610,1248)" d="m0 0h11l16 8 10 7 16 8 9 6 19 10 36 18 8 6 6 3 1 1 8 1 7 6 16 8 10 3 8 6 9 6 2 2 10 2 2 2 8 1 6 5 5 5 62 31 8 6 6 3 1 1 9 2 5 4v2l10 1 9 7 7 4 9 2 5 3v19l-10 8-15 8-23 11-21 7-13 6-9 3-11 5-9 3-25 12-13 6-6 2-14 6-6 2-16 7-7 3-10 4-14 7-9 3-16 7-35 15-18 8-20 8-9 4-21 7-13 1-4-9-1-5 3-4-1-6-2-2v-9l3-3-1-5-2-2-1-63-3-7-589-1-11-1v-2l-407-1-2-3h-102l-5 3-8 6-30 30h-5l-2 7-6 3-10 9-21 21h-361l-13-1-1-3h-14l-1-1v-9l2-2 7-3 23-23 6-7h2l2-4h2l2-4h2l2-4h2l2-4h2l2-4h2l2-4h2l2-4h2l2-4h2l2-4h2l2-4h2l2-4h2l2-4 12-12h2l2-4 8-7 5-4 6-4 6-6v-8l-11-12-41-41-5-4-6-3-29-29-9-1-2-1-1-10-7-7-10-5-2-2-1-9-2-3v-3l8-8h26l1 3 346 1 9 6 4 6 5 5v2l5 1 6 5 3 6 10 10 8 6 3 5 16 10 4 6 6 7 7 6v2l270 1 6 3 367 1 2 3 8 1h2l2-4h141l6 3h260l1-3h14l1 3 5-3h21l2 1v2h10l4-3 5-2 1-40 1-2h2l1-71z" fill="#EB1E27"/>
<path transform="translate(1610,1248)" d="m0 0h11l16 8 10 7 16 8 9 6 19 10 36 18 8 6 6 3 1 1 8 1 7 6 16 8 10 3 8 6 9 6 2 2 10 2 2 2 8 1 6 5 5 5 62 31 8 6 6 3 1 1 9 2 5 4v2l10 1 9 7 7 4 9 2 5 3v19l-10 8-15 8-23 11-21 7-13 6-9 3-11 5-9 3-25 12-13 6-6 2-14 6-6 2-16 7-7 3-10 4-14 7-9 3-16 7-35 15-18 8-20 8-9 4-21 7-13 1-4-9-1-5 3-4-1-6-2-2v-9l3-3-1-5-2-2-1-63-3-7-589-1-11-1v-2l-407-1-2-3h-102l-5 3-8 6-30 30h-5l-2 7-6 3-10 9-21 21h-361l-13-1-1-3h-14l-1-1v-9l2-2 7-3 23-23 6-7h2l2-4h2l2-4h2l2-4h2l2-4h2l2-4h2l2-4h2l2-4h2l2-4h2l2-4h2l2-4h2l2-4h2l2-4 12-12h2l2-4 8-7 5-4 6-4 6-6v-8l-11-12-41-41-5-4-6-3-29-29-9-1-2-1-1-10-7-7-10-5-2-2-1-9-2-3v-3l8-8h26l1 3 346 1 9 6 4 6 5 5v2l5 1 6 5 3 6 10 10 8 6 3 5 16 10 4 6 6 7 7 6v2l270 1 6 3 367 1 2 3 8 1h2l2-4h141l6 3h260l1-3h14l1 3 5-3h21l2 1v2h10l4-3 5-2 1-40 1-2h2l1-71zm23 42-1 2-1 91-1 7-7 2h-199l-442-2-472-4-50-1-6-2-9-11-9-10-18-18-8-7-17-17-8-7-9-9-5-2h-269l-42 1-2 1 1 5 15 16 20 20h2l2 4 6 5 6 7 8 7 32 32 8 7 9 9-1 5-15 16-31 29-10 10-8 7-36 36-6 5-3 5v2l15 2 36 1 134 1h54l78-1 9-3 14-13 7-6v-2l4-2 22-22 8-7 9-9 11-8 10-6 14-2 59 2 150 1 324 3 47 1 245 1h173l101 1 35 1 10 1v15l-1 20v62l2 1 15-4 22-8 60-24 34-14 28-12 22-9 33-13 55-24 26-13 3-4-9-6-11-6-34-18-23-12-19-10-35-18-21-10-19-10-58-30-41-20-18-8z" fill="#08111A"/>
<path transform="translate(1098,242)" d="m0 0h25l16 4 17 9 9 8 8 7 12 15 8 16 4 13 2 9v28l-2 8h15l22 4 29 9 40 16 32 14 16 8 4 6 2 8v7l-4 8-50 50-9 3-11-4-26-13-26-12-27-11-14-4h-10l-10 4-9 7-10 9h-2v2l5 2 2 4h2v2l4 2 13 12 17 17 8 7 5 5 7 6v2l4 2 9 9 4 8v11l-4 8-44 44-4 2-13 1-9-3-12-12-7-8-10-11-7-8-35-35v-2h-2l-7-8-65-65-8-7-33-33-11-9-7-7-8-7-5-6-1-3v-14l5-8 8-7 23-23 7-8 9-9 9-11 28-28 11-9 13-10 13-8 14-7 17-5zm-7 95-14 7-10 9-13 13-5 4 13 12 23 23 8 7 2 2 4-1 9-10 12-16 5-13 1-10-4-10-8-10-9-6-3-1z" fill="#EB1E27"/>
<path transform="translate(847,472)" d="m0 0 8 2 28 15 14 8 16 8 75 36 104 50 25 13 19 11 10 9 2 4v13l-6 9-49 49-4 2-13 1-9-3-21-14-22-13-16-9-3-2-2 4-54 54 1 6 13 23 11 19 13 19 1 3v12l-6 9-47 47-7 2h-12l-6-4-7-9-11-22-13-28-18-40-32-72-17-38-11-24-8-18-8-16-12-23-3-5-1-3v-13l3-5 41-41 5-6 5-5h2l1-3 8-7 5-4zm32 122 8 15 12 24 7 15 3-1 13-13v-2h2v-2l4-2 6-5v-2l-46-23-7-4z" fill="#EB1E27"/>
<path transform="translate(483,835)" d="m0 0 10 1 6 5 10 14 13 18 9 14 1 3v7l-3 10-3 4-14 7-13 8-14 11-8 7-12 12-10 15-2 5 1 7 6 4 6 1 14-4 19-7 27-11 25-8 19-4 8-1h21l17 3 18 6 12 7 11 8 10 9 10 12 8 13 7 16 3 12 1 7v17l-3 16-5 16-8 16-7 12-10 14-11 13-7 8-23 23-10 8-12 10-19 13-16 10-6 2-9-1-9-10-11-18-10-15-6-10-1-3v-8l4-9 5-5 24-14 18-13 12-11 16-16 11-16 3-7-1-7-6-5-9-2-14 2-30 10-29 11-21 6-23 4h-18l-20-4-13-5-16-9-12-11-5-5-8-9-9-16-5-12-3-13v-26l5-21 7-17 9-15 12-16 9-11 22-22 11-9 14-12 22-15z" fill="#EB1E27"/>
<path transform="translate(1308,6)" d="m0 0h12l6 3 22 22 7 8 6 7 3 6v9l-3 7-4 6-9 7-11 11-8 7-15 14-5 4h-2l5 5 1 3 4 2v2l4 2 37 37v2l4 2v2l4 2v2l4 2v2l4 2v2l4 2 4 5 7 6 5 6 6 5 5 5v2l4 2 9 9 8 7 14 14 16 14v2l4 2 20 20 3 6v13l-5 8-43 43-5 3h-13l-7-2-7-6-7-8-15-16-9-10v-2h-2l-7-8-57-57-7-8-11-11-8-7-38-38-4 2-8 8-7 8-15 16-8 9-7 8-8 5h-13l-5-3-22-22-7-8-7-7-6-11 1-7 4-5 8-7 143-143 6-7h2l2-4 6-5 5-5z" fill="#EB1E27"/>
<path transform="translate(687,628)" d="m0 0h11l6 3 22 22v2h2l7 8 5 6 2 6v9l-5 10-13 11-7 7-8 7-17 16-6 6 12 11v2l4 2 32 32v2l4 2v2l4 2v2l4 2v2l3 1 5 6 7 6 7 8 14 14 8 7 12 11 14 14 16 14 4 4v2l4 2 17 17 4 8v11l-4 8-46 46-2 1h-16l-7-3-14-15-22-24-7-8-50-50-7-8-26-26-8-7-32-32-3-1-2 4-16 17-12 13-10 11-7 8-4 3-13 1-7-2-23-23-7-8-9-10-4-8 3-9 151-151 5-6 5-5h2l1-3 8-7 6-4z" fill="#EB1E27"/>
<path transform="translate(483,835)" d="m0 0 10 1 6 5 10 14 13 18 9 14 1 3v7l-3 10-3 4-14 7-13 8-14 11-8 7-12 12-10 15-2 5 1 7 6 4 6 1 14-4 19-7 27-11 25-8 19-4 8-1h21l17 3 18 6 12 7 11 8 10 9 10 12 8 13 7 16 3 12 1 7v17l-3 16-5 16-8 16-7 12-10 14-11 13-7 8-23 23-10 8-12 10-19 13-16 10-6 2-9-1-9-10-11-18-10-15-6-10-1-3v-8l4-9 5-5 24-14 18-13 12-11 16-16 11-16 3-7-1-7-6-5-9-2-14 2-30 10-29 11-21 6-23 4h-18l-20-4-13-5-16-9-12-11-5-5-8-9-9-16-5-12-3-13v-26l5-21 7-17 9-15 12-16 9-11 22-22 11-9 14-12 22-15zm-1 23-15 11-14 11-14 12-23 23-14 19-9 16-6 15-3 11v26l4 13 7 14 8 10 13 13 16 9 13 5 10 2h17l25-5 21-7 26-10 29-9 9-2h15l13 5 6 4 8 11 2 7v7l-3 10-8 13-9 12-11 12-13 13-12 9-13 9-13 8-11 6-1 2 7 10 9 14 9 15 6-1 14-10 11-8 16-13 14-12 11-11 9-11 8-9 14-21 8-15 5-13 3-15v-15l-3-16-8-16-8-11-8-9-12-9-12-7-14-5-10-2h-26l-23 5-25 9-30 12-14 5-13 3h-14l-10-5-5-4-7-10-2-7 1-9 5-12 11-15 11-12 13-12 19-14 20-12-1-4-8-10-9-13-7-10z" fill="#020202"/>
<path transform="translate(1098,242)" d="m0 0h25l16 4 17 9 9 8 8 7 12 15 8 16 4 13 2 9v28l-2 8h15l22 4 29 9 40 16 32 14 16 8 4 6 2 8v7l-4 8-50 50-9 3-11-4-26-13-26-12-27-11-14-4h-10l-10 4-9 7-10 9h-2v2l5 2 2 4h2v2l4 2 13 12 17 17 8 7 5 5 7 6v2l4 2 9 9 4 8v11l-4 8-44 44-4 2-13 1-9-3-12-12-7-8-10-11-7-8-35-35v-2h-2l-7-8-65-65-8-7-33-33-11-9-7-7-8-7-5-6-1-3v-14l5-8 8-7 23-23 7-8 9-9 9-11 28-28 11-9 13-10 13-8 14-7 17-5zm6 19-16 4-19 9-14 10-12 10-11 9-16 16-7 8-12 14-11 11v2h-2l-6 7-4 3v2h-2l-7 8-9 8 1 4 10 9 11 10 8 7 7 7 8 7 20 20 8 7 70 70 7 8 21 21 7 8 7 7 9 11 11 11 5 6 5-1 11-12 27-27-1-4-7-7-8-7-33-33-11-9-16-16-4-5v-10l7-8 6-7 8-7 10-7 12-5 9-2h7l19 5 19 7 38 17 25 12 1 1h5l11-12 19-19v-2l4-2 8-8-1-3-32-14-24-10-29-11-22-7-17-3h-30l-5-3-3-4 1-8 4-13v-28l-4-14-8-15-11-13-11-9-12-7-10-3-7-1z" fill="#020202"/>
<path transform="translate(847,472)" d="m0 0 8 2 28 15 14 8 16 8 75 36 104 50 25 13 19 11 10 9 2 4v13l-6 9-49 49-4 2-13 1-9-3-21-14-22-13-16-9-3-2-2 4-54 54 1 6 13 23 11 19 13 19 1 3v12l-6 9-47 47-7 2h-12l-6-4-7-9-11-22-13-28-18-40-32-72-17-38-11-24-8-18-8-16-12-23-3-5-1-3v-13l3-5 41-41 5-6 5-5h2l1-3 8-7 5-4zm-2 21-11 12-40 40-6 5 1 5 5 8 13 25 13 28 15 33 7 16 6 13 18 41 18 40 9 21 6 12 13 28 9 19 3 1 44-44-1-5-7-10-9-15-12-21-11-20-2-9 7-9 61-61 8-5h6l24 13 17 10 18 11 8 6 3 2 5-1 11-12 33-33 1-4-22-12-29-15-30-15-23-11-34-16-35-17-23-11-45-22-20-11-14-7-5-3z" fill="#020202"/>
<path transform="translate(1308,6)" d="m0 0h12l6 3 22 22 7 8 6 7 3 6v9l-3 7-4 6-9 7-11 11-8 7-15 14-5 4h-2l5 5 1 3 4 2v2l4 2 37 37v2l4 2v2l4 2v2l4 2v2l4 2v2l4 2 4 5 7 6 5 6 6 5 5 5v2l4 2 9 9 8 7 14 14 16 14v2l4 2 20 20 3 6v13l-5 8-43 43-5 3h-13l-7-2-7-6-7-8-15-16-9-10v-2h-2l-7-8-57-57-7-8-11-11-8-7-38-38-4 2-8 8-7 8-15 16-8 9-7 8-8 5h-13l-5-3-22-22-7-8-7-7-6-11 1-7 4-5 8-7 143-143 6-7h2l2-4 6-5 5-5zm5 20-135 135-6 5v2l-4 2-6 7-4 3v2h-2l-8 8 1 4 8 7 11 12 8 10 4 1 4-5 9-11 8-8 7-8 5-5v-2l4-2 7-8 8-9 7-2 7 1 9 7 46 46 8 7 12 12 1 2h2l2 4 42 42 7 8 13 13 9 11 24 24 4-1 14-15 24-24-1-4-17-16-28-28-8-7-15-14-101-101-8-10v-6l8-10 16-14v-2l4-2 17-17 11-9 3-3-2-5-8-7-10-10-7-8z" fill="#020202"/>
<path transform="translate(687,628)" d="m0 0h11l6 3 22 22v2h2l7 8 5 6 2 6v9l-5 10-13 11-7 7-8 7-17 16-6 6 12 11v2l4 2 32 32v2l4 2v2l4 2v2l4 2v2l3 1 5 6 7 6 7 8 14 14 8 7 12 11 14 14 16 14 4 4v2l4 2 17 17 4 8v11l-4 8-46 46-2 1h-16l-7-3-14-15-22-24-7-8-50-50-7-8-26-26-8-7-32-32-3-1-2 4-16 17-12 13-10 11-7 8-4 3-13 1-7-2-23-23-7-8-9-10-4-8 3-9 151-151 5-6 5-5h2l1-3 8-7 6-4zm3 21-132 132-6 5-5 5-5 6-6 5-5 6-5 4 1 4 10 9 11 12 7 8 3 1 11-13 7-8 14-15 3-3v-2l4-2 7-8 9-9 2-1h6l9 6 39 39 8 7 34 34 7 8 30 30 7 8 12 12 7 8 9 10 8 8 7 8 5-1 11-12 27-27-1-4-7-7h-2l-1-3-8-7-33-33-8-7-12-11-101-101-4-7v-7l4-6 10-9 7-6v-2l4-2 17-17 11-9 5-5-1-4-10-9-7-8-9-9z" fill="#020202"/>
<path transform="translate(1090,317)" d="m0 0h12l12 4 10 6 9 9 7 10 4 8 2 9v9l-4 13-4 9-7 11-11 14-11 11-9 6h-9l-9-7-11-11-8-7-17-17-8-7-9-9-1-2v-8l7-11 9-9 1-2h2l2-4 10-9 13-9 12-5zm1 20-14 7-10 9-13 13-5 4 13 12 23 23 8 7 2 2 4-1 9-10 12-16 5-13 1-10-4-10-8-10-9-6-3-1z" fill="#020202"/>
<path transform="translate(855,561)" d="m0 0 7 1 19 10 29 15 23 12 20 10 5 4 1 7-4 8-5 6-24 24-8 7-7 7-4 2-5-1-8-7-12-23-9-19-10-19-10-20-5-8v-7l3-5zm24 33 8 15 12 24 7 15 3-1 13-13v-2h2v-2l4-2 6-5v-2l-46-23-7-4z" fill="#020202"/>
<path transform="translate(993,1480)" d="m0 0h38l205 1 51 1 31 1v1h-315l-11-1z" fill="#B4B7BA"/>
<path transform="translate(587,1364)" d="m0 0h155l2 1-1 3h-55l-186-1-27-1v-1z" fill="#FDFDFD"/>
<path transform="translate(1129,1368)" d="m0 0h141l2 1-1 3h-142z" fill="#F3F3F4"/>
<path transform="translate(269,1299)" d="m0 0h16l20 1 59 1v1l-60 1h-235v-1l25-1 102-1h56z" fill="#020202"/>
<path transform="translate(1631,1338)" d="m0 0h1v45l-2 7-7 3h-199l-214-1v-1h414l1-3 4-2 1-5z" fill="#020202"/>
<path transform="translate(1228,1461)" d="m0 0h79l28 1 4 2-27 1-6 1h-74l-23-2-2-2z" fill="#020202"/>
<path transform="translate(584,1477)" d="m0 0h191l8 1v1l-198 1z" fill="#FDFDFD"/>
<path transform="translate(490,1454)" d="m0 0h21l30 1 150 1 11 1 2 2h-15l-36-1h-114l-40-2-9-1z" fill="#020202"/>
<path transform="translate(128,1425)" d="m0 0 3 1-10 9-8 7-16 15-40 40-8 7-13 13v-3l6-7h2l2-4h2l2-4h2l2-4h2l2-4h2l2-4h2l2-4h2l2-4h2l2-4h2l2-4h2l2-4h2l2-4h2l2-4 12-12h2l2-4 8-7 5-4 6-4z" fill="#A6AAAD"/>
<path transform="translate(165,1414)" d="m0 0 3 2-1 5-15 16-16 15-15 14-3-2 2-5 7-6 5-5 5-4h3l1-4 6-5 4-6 2-1 1-6h2l1-2h6l3-1z" fill="#020202"/>
<path transform="translate(1615,1248)" d="m0 0 9 1 16 9 9 6 16 8 10 7 52 26 5 4v2l-5-2-15-8-17-8-22-12-17-10-18-10-13-8-10-4z" fill="#C3C5C7"/>
<path transform="translate(9,1294)" d="m0 0 5 5 11 8 6 7 4 5 9 7 11 11 8 7 8 8 4 3-1 2-6-3-29-29-9-1-2-1-1-10-7-7-10-5-2-2z" fill="#D0D2D4"/>
<path transform="translate(1731,1548)" d="m0 0 3 1-20 10-14 5-14 7-14 5-14 7-10 3-13 6-16 5-10 1 3-2 23-7 37-16 22-9 19-8z" fill="#FDFDFD"/>
<path transform="translate(1820,1352)" d="m0 0 4 2 5 5 8 5 58 29 6 5-2 1-21-11-16-8-17-9-14-7-15-10z" fill="#DBDCDD"/>
<path transform="translate(1112,1368)" d="m0 0 4 1-1 3-92-1 1-2z" fill="#FDFDFD"/>
<path transform="translate(1963,1445)" d="m0 0v3l-9 7-15 8-23 11-21 7-13 6-7 1 4-3 20-8 21-8 15-7 17-9z" fill="#FDFDFD"/>
<path transform="translate(477,1476)" d="m0 0h3l-1 3-8 4-33 33h-5l6-7 16-15 6-6h2v-2l12-9z" fill="#CFD1D3"/>
<path transform="translate(432,1516)" d="m0 0 1 2-2 5-6 3-10 9-21 21h-4l2-4 13-12 8-7 9-9 5-4h2v-2z" fill="#E5E6E7"/>
<path transform="translate(1855,1472)" d="m0 0 3 1-7 4-14 5-11 5-16 6-8 4-10 3-21 9-3-1 18-8 22-9 33-13z" fill="#020202"/>
<path transform="translate(1677,1281)" d="m0 0 4 1 46 23 5 4v2l-5-2-15-8-17-8-18-10z" fill="#CFD1D2"/>
<path transform="translate(75,1357)" d="m0 0 5 2 17 17 2 1v2l4 2v2l4 2v2l4 2 5 6 7 6 7 8 6 7-1 4-2-4v-2l-4-2-7-8-43-43z" fill="#AAADB0"/>
<path transform="translate(711,1457)" d="m0 0h64v1l-32 2-5 1-3-1-26-1z" fill="#020202"/>
<path transform="translate(1852,1496)" d="m0 0 2 1-16 8-23 11-6 2-14 6h-5l3-2 19-8 20-9z" fill="#FDFDFD"/>
<path transform="translate(442,1336)" d="m0 0 5 1 8 5 4 6 6 7 7 6v2h2v2l-5-2-19-19v-2l-5-2z" fill="#CCCED0"/>
<path transform="translate(1757,1324)" d="m0 0 7 1 11 6 8 2 8 6 8 5-3 1-17-9-15-7-7-4z" fill="#C4C6C8"/>
<path transform="translate(462,1458)" d="m0 0 2 1-7 6h-3v2l-8 7-15 14-9 8-2-1 10-10h2l2-4 8-7 11-10z" fill="#020202"/>
<path transform="translate(391,1284)" d="m0 0 4 2 4 6 5 5v2l5 1 6 5 3 6 3 4-1 2-6-7v-2l-4-2-14-13-6-8z" fill="#EFEFF0"/>
<path transform="translate(1597,1508)" d="m0 0 2 2 1 46h-3z" fill="#FDFDFD"/>
<path transform="translate(415,1525)" d="m0 0h5l-2 4-11 11-5 2 2-7h3v-3l4-1-1-3z" fill="#030507"/>
<path transform="translate(1918,1470)" d="m0 0m-3 1h3v2l-8 3-11 4-13 5-8 3-3-1 19-8z" fill="#FDFDFD"/>
<path transform="translate(1601,1324)" d="m0 0 3 1-1 36-1 7h-1z" fill="#FDFDFD"/>
<path transform="translate(1557,1368)" d="m0 0h21l2 1v2l-4 1h-19l-2-2z" fill="#CCCED0"/>
<path transform="translate(1636,1595)" d="m0 0h3l1 2v6l-1 1h-7l-2-4-2-1 1-3z" fill="#F3F4F4"/>
<path transform="translate(13,1276)" d="m0 0h26l1 3h-29z" fill="#AFB2B5"/>
<path transform="translate(1610,1248)" d="m0 0 4 1-6 4-1 3-1 25h-2v-28z" fill="#959A9D"/>
<path transform="translate(1600,1326)" d="m0 0h1v40h-1zm-1 40m-1 1m-4 1 7 1v2l-7 1-2-2z" fill="#555C62"/>
<path transform="translate(9,1294)" d="m0 0 5 5 11 8 4 4v2l-4-2-7-6-8-4-2-2z" fill="#B6B9BB"/>
<path transform="translate(1642,1586)" d="m0 0m-2 1h2v2l-16 6-13 3-4-1 26-8z" fill="#D8DADB"/>
<path transform="translate(1891,1456)" d="m0 0 3 1-16 8-8 3-9 4-3-1 19-9z" fill="#020202"/>
<path transform="translate(1668,1575)" d="m0 0m-3 1h3v2l-10 5-10 3-6 2 4-4z" fill="#F8F8F9"/>
<path transform="translate(19,1553)" d="m0 0h17l11 1v2h-14l-13-1z" fill="#FDFDFD"/>
<path transform="translate(9,1500)" d="m0 0h6l1 7-7 1-1-1z" fill="#F4F4F5"/>
<path transform="translate(1820,1352)" d="m0 0 4 2 5 5 4 3v2l-5-2-12-8z" fill="#CCCED0"/>
<path transform="translate(54,1495)" d="m0 0 2 1-7 8-13 13v-3l6-7h2l2-4h2l2-4h2z" fill="#94989C"/>
<path transform="translate(116,1396)" d="m0 0 3 1 5 6 5 5 7 8-1 4-2-4v-2l-4-2-7-8-6-6z" fill="#AEB1B4"/>
<path transform="translate(1658,1588)" d="m0 0h5l1 5-3 3-4-1-1-5z" fill="#FDFDFD"/>
<path transform="translate(1537,1368)" d="m0 0h14l1 2-1 2-15-1z" fill="#DADBDC"/>
<path transform="translate(1734,1311)" d="m0 0 7 3 1 1 8 1 5 6h-3l-7-4-8-3-3-2z" fill="#D5D6D8"/>
<path transform="translate(1760,1536)" d="m0 0 2 1-14 7-10 4-4-1z" fill="#FDFDFD"/>
<path transform="translate(432,1516)" d="m0 0 1 2-2 5-6 3-8 6 2-4 8-8h2v-2z" fill="#F2F3F3"/>
<path transform="translate(1757,1324)" d="m0 0 7 1 11 6v2l3 1-6-1-15-8z" fill="#D4D5D7"/>
<path transform="translate(1788,1524)" d="m0 0 2 1-14 7-10 4-4-1z" fill="#FDFDFD"/>
<path transform="translate(1615,1248)" d="m0 0 9 1 9 5 1 3-6-2-9-4z" fill="#B0B3B6"/>
<path transform="translate(391,1284)" d="m0 0 4 2 4 6 5 5v2l3 1-5-1-12-13z" fill="#E1E2E3"/>
<path transform="translate(1597,1564)" d="m0 0h3v11l-4-1v-9z" fill="#CDCFD0"/>
<path transform="translate(1963,1445)" d="m0 0v3l-9 7-7 3v-2l15-10z" fill="#CED0D2"/>
<path transform="translate(1928,1412)" d="m0 0h6l7 6-3 1-9-5z" fill="#C5C7C9"/>
<path transform="translate(1952,1424)" d="m0 0 7 1 5 3-1 4-11-7z" fill="#C9CBCD"/>
<path transform="translate(1633,1255)" d="m0 0 6 2 6 5v2l-5-2-6-4z" fill="#BABCBF"/>
<path transform="translate(477,1476)" d="m0 0h3l-1 3-8 4-5 4 2-4 7-6z" fill="#F5F5F5"/>
<path transform="translate(1597,1584)" d="m0 0h3l1 8h-3l-2-3z" fill="#D1D3D4"/>
<path transform="translate(54,1495)" d="m0 0 2 1-7 8-4 1 1-2h2l2-4h2z" fill="#535A60"/>
<path transform="translate(1890,1392)" d="m0 0 5 1 6 5-2 1-9-5z" fill="#F3F3F4"/>
<path transform="translate(448,1375)" d="m0 0 5 3 4 5 3 2h-5l-7-8z" fill="#020202"/>
</svg>
